<svg viewBox="0 0 24 24" fill="none" xmlns="http://www.w3.org/2000/svg">
  <path fill-rule="evenodd" clip-rule="evenodd"
    d="M 7.556 3.681 C 8.185 3.199 8.927 2.837 9.796 2.612 C 9.786 2.524 9.781 2.435 9.781 2.345 C 9.781 1.089 10.8 0.072 12.055 0.072 C 13.311 0.072 14.328 1.089 14.328 2.345 C 14.328 2.435 14.323 2.524 14.313 2.612 C 15.181 2.837 15.925 3.199 16.553 3.681 C 17.662 4.533 18.304 5.677 18.683 6.817 C 19.062 7.948 19.198 9.126 19.264 10.119 C 19.29 10.523 19.308 10.91 19.321 11.252 L 19.331 11.482 C 19.349 11.893 19.368 12.199 19.398 12.425 C 19.62 14.086 19.895 15.252 20.289 16.183 C 20.673 17.094 21.187 17.828 21.952 18.592 C 22.277 18.917 22.374 19.406 22.198 19.831 C 22.023 20.256 21.609 20.532 21.148 20.532 L 14.025 20.532 C 14.218 20.867 14.328 21.255 14.328 21.668 C 14.328 22.925 13.311 23.943 12.055 23.943 C 10.8 23.943 9.781 22.925 9.781 21.668 C 9.781 21.255 9.892 20.867 10.086 20.532 L 2.961 20.532 C 2.502 20.532 2.087 20.256 1.911 19.831 C 1.735 19.406 1.832 18.917 2.157 18.592 C 2.923 17.826 3.437 17.098 3.819 16.19 C 4.213 15.262 4.488 14.099 4.711 12.425 C 4.742 12.199 4.76 11.893 4.777 11.482 L 4.787 11.252 C 4.802 10.91 4.818 10.523 4.844 10.119 C 4.911 9.126 5.048 7.948 5.424 6.817 C 5.805 5.677 6.447 4.533 7.556 3.681 Z M 5.312 18.259 C 5.537 17.889 5.736 17.497 5.914 17.075 C 6.421 15.879 6.73 14.485 6.965 12.727 C 7.011 12.384 7.032 11.98 7.049 11.581 L 7.06 11.337 C 7.074 10.996 7.089 10.644 7.113 10.272 C 7.175 9.347 7.296 8.394 7.582 7.536 C 7.865 6.686 8.292 5.982 8.941 5.484 C 9.582 4.992 10.546 4.618 12.055 4.618 C 13.564 4.618 14.527 4.992 15.167 5.484 C 15.816 5.982 16.245 6.686 16.528 7.536 C 16.814 8.394 16.934 9.347 16.997 10.272 C 17.021 10.644 17.036 10.996 17.05 11.337 L 17.061 11.581 C 17.077 11.98 17.098 12.384 17.144 12.727 C 17.377 14.475 17.688 15.867 18.194 17.066 C 18.373 17.491 18.573 17.884 18.799 18.259 L 5.312 18.259 Z"
    fill="#fff"></path>
  <path
    d="M 15.285 7.952 L 16.425 5.973 C 16.754 5.392 16.56 4.649 15.98 4.318 C 15.402 3.986 14.657 4.18 14.326 4.761 L 13.179 6.741 C 10.743 5.973 8.016 6.97 6.686 9.274 C 5.838 10.74 5.736 12.426 6.25 13.905 L 8.359 10.243 C 8.359 10.243 8.359 10.243 8.359 10.243 C 8.841 9.403 9.63 8.802 10.568 8.551 C 11.506 8.296 12.482 8.427 13.323 8.917 C 15.056 9.918 15.655 12.146 14.652 13.877 C 13.648 15.611 11.428 16.21 9.689 15.206 L 10.9 13.109 C 11.479 13.44 12.222 13.247 12.555 12.666 C 12.886 12.087 12.69 11.345 12.111 11.013 C 11.532 10.68 10.788 10.877 10.457 11.454 L 6.602 18.144 C 6.269 18.725 6.464 19.466 7.044 19.8 C 7.624 20.13 8.367 19.935 8.699 19.355 L 9.846 17.377 C 12.281 18.144 15.009 17.149 16.338 14.842 C 17.666 12.543 17.165 9.685 15.285 7.952 Z"
    fill="#fff" style="stroke-width: 0.5px; stroke: #fff;"></path>
</svg>
